<svg width="136" height="29" viewBox="0 0 136 29" fill="none" xmlns="http://www.w3.org/2000/svg">
<path d="M22.1038 29C21.8104 28.04 21.4771 27.0533 21.1038 26.04C20.7571 25.0267 20.4104 24.0133 20.0638 23H9.26375C8.91708 24.0133 8.55708 25.0267 8.18375 26.04C7.83708 27.0533 7.51708 28.04 7.22375 29H0.74375C1.78375 26.0133 2.77042 23.2533 3.70375 20.72C4.63708 18.1867 5.54375 15.8 6.42375 13.56C7.33042 11.32 8.21042 9.2 9.06375 7.2C9.94375 5.17333 10.8504 3.2 11.7838 1.28H17.7438C18.6504 3.2 19.5438 5.17333 20.4238 7.2C21.3038 9.2 22.1838 11.32 23.0638 13.56C23.9704 15.8 24.8904 18.1867 25.8238 20.72C26.7571 23.2533 27.7438 26.0133 28.7838 29H22.1038ZM14.6238 7.56C14.4904 7.96 14.2904 8.50667 14.0238 9.2C13.7571 9.89333 13.4504 10.6933 13.1038 11.6C12.7571 12.5067 12.3704 13.5067 11.9438 14.6C11.5438 15.6933 11.1304 16.84 10.7038 18.04H18.5838C18.1571 16.84 17.7438 15.6933 17.3438 14.6C16.9438 13.5067 16.5571 12.5067 16.1838 11.6C15.8371 10.6933 15.5304 9.89333 15.2638 9.2C14.9971 8.50667 14.7838 7.96 14.6238 7.56ZM50.8919 23.64V29H32.3719V1.28H38.6119V23.64H50.8919ZM63.2309 0.959999C67.3643 0.959999 70.5376 1.69333 72.7509 3.16C74.9643 4.6 76.0709 6.97333 76.0709 10.28C76.0709 13.6133 74.9509 16.0267 72.7109 17.52C70.4709 18.9867 67.2709 19.72 63.1109 19.72H61.1509V29H54.9109V1.68C56.2709 1.41333 57.7109 1.22667 59.2309 1.12C60.7509 1.01333 62.0843 0.959999 63.2309 0.959999ZM63.6309 6.28C63.1776 6.28 62.7243 6.29333 62.2709 6.32C61.8443 6.34667 61.4709 6.37333 61.1509 6.4V14.4H63.1109C65.2709 14.4 66.8976 14.1067 67.9909 13.52C69.0843 12.9333 69.6309 11.84 69.6309 10.24C69.6309 9.46667 69.4843 8.82667 69.1909 8.32C68.9243 7.81333 68.5243 7.41333 67.9909 7.12C67.4843 6.8 66.8576 6.58667 66.1109 6.48C65.3643 6.34667 64.5376 6.28 63.6309 6.28ZM97.3731 1.28H103.613V29H97.3731V17.24H86.8931V29H80.6531V1.28H86.8931V11.88H97.3731V1.28ZM128.588 29C128.295 28.04 127.961 27.0533 127.588 26.04C127.241 25.0267 126.895 24.0133 126.548 23H115.748C115.401 24.0133 115.041 25.0267 114.668 26.04C114.321 27.0533 114.001 28.04 113.708 29H107.228C108.268 26.0133 109.255 23.2533 110.188 20.72C111.121 18.1867 112.028 15.8 112.908 13.56C113.815 11.32 114.695 9.2 115.548 7.2C116.428 5.17333 117.335 3.2 118.268 1.28H124.228C125.135 3.2 126.028 5.17333 126.908 7.2C127.788 9.2 128.668 11.32 129.548 13.56C130.455 15.8 131.375 18.1867 132.308 20.72C133.241 23.2533 134.228 26.0133 135.268 29H128.588ZM121.108 7.56C120.975 7.96 120.775 8.50667 120.508 9.2C120.241 9.89333 119.935 10.6933 119.588 11.6C119.241 12.5067 118.855 13.5067 118.428 14.6C118.028 15.6933 117.615 16.84 117.188 18.04H125.068C124.641 16.84 124.228 15.6933 123.828 14.6C123.428 13.5067 123.041 12.5067 122.668 11.6C122.321 10.6933 122.015 9.89333 121.748 9.2C121.481 8.50667 121.268 7.96 121.108 7.56Z" fill="#656563" fill-opacity="0.5"/>
</svg>
